<svg width="256" height="256" viewBox="0 0 256 256" fill="none" xmlns="http://www.w3.org/2000/svg">
<rect x="17" y="29" width="222" height="84" fill="#2E94DD"/>
<path d="M27.8179 95.112C26.1539 93.064 25.3219 91.24 25.3219 89.64C25.3219 87.976 26.6979 85.8 29.4499 83.112C31.0499 81.576 32.7459 80.808 34.5379 80.808C36.3299 80.808 38.8259 82.408 42.0259 85.608C42.9219 86.696 44.2019 87.752 45.8659 88.776C47.5299 89.736 49.0659 90.216 50.4739 90.216C56.4259 90.216 59.4019 87.784 59.4019 82.92C59.4019 81.448 58.5699 80.232 56.9059 79.272C55.3059 78.248 53.2899 77.512 50.8579 77.064C48.4259 76.616 45.8019 75.912 42.9859 74.952C40.1699 73.928 37.5459 72.744 35.1139 71.4C32.6819 70.056 30.6339 67.944 28.9699 65.064C27.3699 62.12 26.5699 58.6 26.5699 54.504C26.5699 48.872 28.6499 43.976 32.8099 39.816C37.0339 35.592 42.7619 33.48 49.9939 33.48C53.8339 33.48 57.3219 33.992 60.4579 35.016C63.6579 35.976 65.8659 36.968 67.0819 37.992L69.4819 39.816C71.4659 41.672 72.4579 43.24 72.4579 44.52C72.4579 45.8 71.6899 47.56 70.1539 49.8C67.9779 53 65.7379 54.6 63.4339 54.6C62.0899 54.6 60.4259 53.96 58.4419 52.68C58.2499 52.552 57.8659 52.232 57.2899 51.72C56.7779 51.208 56.2979 50.792 55.8499 50.472C54.5059 49.64 52.7779 49.224 50.6659 49.224C48.6179 49.224 46.8899 49.736 45.4819 50.76C44.1379 51.72 43.4659 53.096 43.4659 54.888C43.4659 56.616 44.2659 58.024 45.8659 59.112C47.5299 60.2 49.5779 60.936 52.0099 61.32C54.4419 61.704 57.0979 62.312 59.9779 63.144C62.8579 63.912 65.5139 64.872 67.9459 66.024C70.3779 67.176 72.3939 69.192 73.9939 72.072C75.6579 74.888 76.4899 78.376 76.4899 82.536C76.4899 86.696 75.6579 90.376 73.9939 93.576C72.3299 96.712 70.1539 99.144 67.4659 100.872C62.2819 104.264 56.7459 105.96 50.8579 105.96C47.8499 105.96 45.0019 105.608 42.3139 104.904C39.6259 104.136 37.4499 103.208 35.7859 102.12C32.3939 100.072 30.0259 98.088 28.6819 96.168L27.8179 95.112ZM128.715 37.224C129.355 36.2 130.283 35.496 131.499 35.112C132.715 34.728 134.219 34.536 136.011 34.536C137.867 34.536 139.339 34.696 140.427 35.016C141.515 35.336 142.347 35.72 142.923 36.168C143.499 36.616 143.915 37.288 144.171 38.184C144.555 39.272 144.747 40.936 144.747 43.176V72.168C144.747 80.616 142.123 88.296 136.875 95.208C134.315 98.472 131.019 101.128 126.987 103.176C122.955 105.16 118.475 106.152 113.547 106.152C108.683 106.152 104.235 105.128 100.203 103.08C96.2346 101.032 93.0026 98.344 90.5066 95.016C85.3226 88.232 82.7306 80.552 82.7306 71.976V43.08C82.7306 41.544 82.7626 40.424 82.8266 39.72C82.9546 38.952 83.2746 38.088 83.7866 37.128C84.2986 36.168 85.1626 35.496 86.3786 35.112C87.5946 34.728 89.2266 34.536 91.2746 34.536C93.3226 34.536 94.9546 34.728 96.1706 35.112C97.3866 35.496 98.2186 36.168 98.6666 37.128C99.4346 38.6 99.8186 40.616 99.8186 43.176V71.976C99.8186 75.88 100.779 79.592 102.699 83.112C103.659 84.904 105.099 86.344 107.019 87.432C108.939 88.52 111.211 89.064 113.835 89.064C118.507 89.064 121.995 87.336 124.299 83.88C126.603 80.424 127.755 76.424 127.755 71.88V42.504C127.755 40.008 128.075 38.248 128.715 37.224ZM227.171 37.32C227.683 38.28 227.971 39.144 228.035 39.912C228.163 40.68 228.227 41.8 228.227 43.272V96.552C228.227 100.968 227.011 103.56 224.579 104.328C223.363 104.712 221.827 104.904 219.971 104.904C218.115 104.904 216.643 104.744 215.555 104.424C214.467 104.104 213.635 103.72 213.059 103.272C212.483 102.824 212.035 102.184 211.715 101.352C211.395 100.264 211.235 98.6 211.235 96.36V64.2C209.635 66.184 207.299 69.352 204.227 73.704C201.155 77.992 199.203 80.68 198.371 81.768C197.539 82.856 196.963 83.624 196.643 84.072C196.323 84.456 195.523 85.032 194.243 85.8C193.027 86.504 191.683 86.856 190.211 86.856C188.803 86.856 187.491 86.536 186.275 85.896C185.123 85.192 184.291 84.52 183.779 83.88L183.011 82.824C181.731 81.224 179.203 77.832 175.427 72.648C171.651 67.4 169.603 64.584 169.283 64.2V96.552C169.283 98.024 169.219 99.144 169.091 99.912C169.027 100.616 168.739 101.416 168.227 102.312C167.267 104.04 164.771 104.904 160.739 104.904C156.835 104.904 154.403 104.04 153.443 102.312C152.931 101.416 152.611 100.584 152.483 99.816C152.419 99.048 152.387 97.896 152.387 96.36V43.08C152.387 41.608 152.419 40.52 152.483 39.816C152.611 39.048 152.931 38.184 153.443 37.224C154.403 35.56 156.899 34.728 160.931 34.728C162.659 34.728 164.131 34.952 165.347 35.4C166.627 35.784 167.459 36.2 167.843 36.648L168.419 37.224L190.211 65.832C201.091 51.432 208.355 41.928 212.003 37.32C213.091 35.592 215.651 34.728 219.683 34.728C223.779 34.728 226.275 35.592 227.171 37.32ZM65.6074 153.608C66.2474 152.456 67.1754 151.688 68.3914 151.304C69.6074 150.92 71.1114 150.728 72.9034 150.728C74.7594 150.728 76.2314 150.888 77.3194 151.208C78.4714 151.528 79.3034 151.912 79.8154 152.36C80.3914 152.808 80.8074 153.48 81.0634 154.376C81.4474 155.4 81.6394 157.032 81.6394 159.272V212.552C81.6394 214.088 81.5754 215.208 81.4474 215.912C81.3834 216.616 81.0954 217.448 80.5834 218.408C79.6874 220.136 77.1914 221 73.0954 221C70.5994 221 68.8714 220.808 67.9114 220.424C66.9514 220.04 66.1514 219.432 65.5114 218.6C51.1114 199.4 41.6394 186.856 37.0954 180.968V212.552C37.0954 214.088 37.0314 215.208 36.9034 215.912C36.8394 216.616 36.5514 217.448 36.0394 218.408C35.1434 220.136 32.6474 221 28.5514 221C24.5834 221 22.1514 220.136 21.2554 218.408C20.7434 217.448 20.4234 216.584 20.2954 215.816C20.2314 215.048 20.1994 213.928 20.1994 212.456V158.888C20.1994 156.456 20.4874 154.696 21.0634 153.608C21.7034 152.456 22.6314 151.688 23.8474 151.304C25.0634 150.92 26.6314 150.728 28.5514 150.728C30.4714 150.728 31.9754 150.92 33.0634 151.304C34.2154 151.624 35.0154 152.008 35.4634 152.456C35.7194 152.648 36.4554 153.48 37.6714 154.952C51.1754 173.32 60.1994 185.448 64.7434 191.336V158.888C64.7434 156.456 65.0314 154.696 65.6074 153.608ZM135.277 153.224C135.917 152.2 136.845 151.496 138.061 151.112C139.277 150.728 140.781 150.536 142.573 150.536C144.429 150.536 145.901 150.696 146.989 151.016C148.077 151.336 148.909 151.72 149.485 152.168C150.061 152.616 150.477 153.288 150.733 154.184C151.117 155.272 151.309 156.936 151.309 159.176V188.168C151.309 196.616 148.685 204.296 143.437 211.208C140.877 214.472 137.581 217.128 133.549 219.176C129.517 221.16 125.037 222.152 120.109 222.152C115.245 222.152 110.797 221.128 106.765 219.08C102.797 217.032 99.5651 214.344 97.0691 211.016C91.8851 204.232 89.2931 196.552 89.2931 187.976V159.08C89.2931 157.544 89.3251 156.424 89.3891 155.72C89.5171 154.952 89.8371 154.088 90.3491 153.128C90.8611 152.168 91.7251 151.496 92.9411 151.112C94.1571 150.728 95.7891 150.536 97.8371 150.536C99.8851 150.536 101.517 150.728 102.733 151.112C103.949 151.496 104.781 152.168 105.229 153.128C105.997 154.6 106.381 156.616 106.381 159.176V187.976C106.381 191.88 107.341 195.592 109.261 199.112C110.221 200.904 111.661 202.344 113.581 203.432C115.501 204.52 117.773 205.064 120.397 205.064C125.069 205.064 128.557 203.336 130.861 199.88C133.165 196.424 134.317 192.424 134.317 187.88V158.504C134.317 156.008 134.637 154.248 135.277 153.224ZM233.733 153.32C234.245 154.28 234.533 155.144 234.597 155.912C234.725 156.68 234.789 157.8 234.789 159.272V212.552C234.789 216.968 233.573 219.56 231.141 220.328C229.925 220.712 228.389 220.904 226.533 220.904C224.677 220.904 223.205 220.744 222.117 220.424C221.029 220.104 220.197 219.72 219.621 219.272C219.045 218.824 218.597 218.184 218.277 217.352C217.957 216.264 217.797 214.6 217.797 212.36V180.2C216.197 182.184 213.861 185.352 210.789 189.704C207.717 193.992 205.765 196.68 204.933 197.768C204.101 198.856 203.525 199.624 203.205 200.072C202.885 200.456 202.085 201.032 200.805 201.8C199.589 202.504 198.245 202.856 196.773 202.856C195.365 202.856 194.053 202.536 192.837 201.896C191.685 201.192 190.853 200.52 190.341 199.88L189.573 198.824C188.293 197.224 185.765 193.832 181.989 188.648C178.213 183.4 176.165 180.584 175.845 180.2V212.552C175.845 214.024 175.781 215.144 175.653 215.912C175.589 216.616 175.301 217.416 174.789 218.312C173.829 220.04 171.333 220.904 167.301 220.904C163.397 220.904 160.965 220.04 160.005 218.312C159.493 217.416 159.173 216.584 159.045 215.816C158.981 215.048 158.949 213.896 158.949 212.36V159.08C158.949 157.608 158.981 156.52 159.045 155.816C159.173 155.048 159.493 154.184 160.005 153.224C160.965 151.56 163.461 150.728 167.493 150.728C169.221 150.728 170.693 150.952 171.909 151.4C173.189 151.784 174.021 152.2 174.405 152.648L174.981 153.224L196.773 181.832C207.653 167.432 214.917 157.928 218.565 153.32C219.653 151.592 222.213 150.728 226.245 150.728C230.341 150.728 232.837 151.592 233.733 153.32Z" fill="#DCDFE3"/>
<path opacity="0.1" d="M17.2729 18.344C17.8275 17.7893 18.4249 17.512 19.0649 17.512C19.7262 17.512 20.2382 17.5653 20.6009 17.672C20.9635 17.7787 21.2409 17.9067 21.4329 18.056C21.6249 18.184 21.7742 18.408 21.8809 18.728C21.9875 19.0907 22.0409 19.656 22.0409 20.424V38.248C22.0409 38.7387 22.0195 39.112 21.9769 39.368C21.9555 39.6027 21.8595 39.88 21.6889 40.2C21.3902 40.776 20.5582 41.064 19.1929 41.064C17.8702 41.064 17.0489 40.7867 16.7289 40.232C16.5582 39.912 16.4515 39.624 16.4089 39.368C16.3875 39.0907 16.3769 38.696 16.3769 38.184V26.76L15.9609 27.144C15.0862 27.8053 14.3395 28.136 13.7209 28.136C13.1022 28.136 12.4515 27.7627 11.7689 27.016C11.1075 26.2693 10.7769 25.608 10.7769 25.032C10.7769 24.456 11.1609 23.8267 11.9289 23.144L17.1769 18.408L17.2729 18.344ZM32.2219 24.744C32.2219 22.5893 32.9899 20.7867 34.5259 19.336C36.0619 17.8853 37.9285 17.16 40.1259 17.16C42.9205 17.16 45.0219 18.056 46.4299 19.848C47.8379 21.6187 48.5419 23.912 48.5419 26.728C48.5419 30.8027 47.3899 34.2053 45.0859 36.936C42.7819 39.6667 39.6352 41.032 35.6459 41.032H35.4539C34.6432 41.032 34.0672 40.9253 33.7259 40.712C33.1285 40.3493 32.8299 39.5067 32.8299 38.184C32.8299 36.6907 33.2352 35.816 34.0459 35.56C34.4085 35.432 35.0272 35.368 35.9019 35.368C36.7765 35.368 37.6192 35.2187 38.4299 34.92C39.2619 34.6213 39.9019 34.2587 40.3499 33.832C41.2672 32.9573 41.8539 32.168 42.1099 31.464L42.2699 31.016C41.4592 31.3787 40.6592 31.56 39.8699 31.56C37.7792 31.56 35.9765 30.8667 34.4619 29.48C32.9685 28.072 32.2219 26.4933 32.2219 24.744ZM40.2539 22.408C38.6112 22.408 37.7899 23.1227 37.7899 24.552C37.7899 25.0427 37.9712 25.5013 38.3339 25.928C38.7179 26.3547 39.3259 26.568 40.1579 26.568C40.9899 26.568 41.6192 26.376 42.0459 25.992C42.4939 25.5867 42.7179 25.192 42.7179 24.808C42.7179 24.4027 42.6859 24.0933 42.6219 23.88C42.5792 23.6453 42.4725 23.4 42.3019 23.144C41.9819 22.6533 41.2992 22.408 40.2539 22.408ZM50.1281 24.744C50.1281 22.5893 50.8961 20.7867 52.4321 19.336C53.9681 17.8853 55.8348 17.16 58.0321 17.16C60.8268 17.16 62.9281 18.056 64.3361 19.848C65.7441 21.6187 66.4481 23.912 66.4481 26.728C66.4481 30.8027 65.2961 34.2053 62.9921 36.936C60.6881 39.6667 57.5415 41.032 53.5521 41.032H53.3601C52.5495 41.032 51.9735 40.9253 51.6321 40.712C51.0348 40.3493 50.7361 39.5067 50.7361 38.184C50.7361 36.6907 51.1415 35.816 51.9521 35.56C52.3148 35.432 52.9335 35.368 53.8081 35.368C54.6828 35.368 55.5255 35.2187 56.3361 34.92C57.1681 34.6213 57.8081 34.2587 58.2561 33.832C59.1735 32.9573 59.7601 32.168 60.0161 31.464L60.1761 31.016C59.3655 31.3787 58.5655 31.56 57.7761 31.56C55.6855 31.56 53.8828 30.8667 52.3681 29.48C50.8748 28.072 50.1281 26.4933 50.1281 24.744ZM58.1601 22.408C56.5175 22.408 55.6961 23.1227 55.6961 24.552C55.6961 25.0427 55.8775 25.5013 56.2401 25.928C56.6241 26.3547 57.2321 26.568 58.0641 26.568C58.8961 26.568 59.5255 26.376 59.9521 25.992C60.4001 25.5867 60.6241 25.192 60.6241 24.808C60.6241 24.4027 60.5921 24.0933 60.5281 23.88C60.4855 23.6453 60.3788 23.4 60.2081 23.144C59.8881 22.6533 59.2055 22.408 58.1601 22.408ZM70.4664 20.264C71.085 19.3893 71.949 18.664 73.0584 18.088C74.189 17.4907 75.4904 17.192 76.9624 17.192C78.4344 17.192 79.7144 17.48 80.8024 18.056C81.9117 18.632 82.7757 19.3467 83.3944 20.2C84.0344 21.0533 84.5464 22.056 84.9304 23.208C85.5704 25.128 85.8904 27.1653 85.8904 29.32C85.8904 33.1813 85.0584 36.2427 83.3944 38.504C82.7757 39.3573 81.9117 40.0613 80.8024 40.616C79.7144 41.1707 78.445 41.448 76.9944 41.448C75.5437 41.448 74.253 41.1707 73.1224 40.616C72.013 40.04 71.1384 39.336 70.4984 38.504C69.8797 37.672 69.3677 36.68 68.9624 35.528C68.3437 33.6933 68.0344 31.6133 68.0344 29.288C68.0344 27.1547 68.2797 25.3307 68.7704 23.816C69.2824 22.3013 69.8477 21.1173 70.4664 20.264ZM76.9304 35.752C79.1277 35.752 80.2264 33.6613 80.2264 29.48V29.288C80.2264 25 79.1384 22.856 76.9624 22.856C74.7864 22.856 73.6984 25.0107 73.6984 29.32C73.6984 33.608 74.7757 35.752 76.9304 35.752Z" fill="#DCDFE3"/>
<path opacity="0.1" d="M22.6154 229.872H13.3674C12.258 229.872 11.5967 229.531 11.3834 228.848C11.2554 228.485 11.1914 228.027 11.1914 227.472C11.1914 226.896 11.2447 226.437 11.3514 226.096C11.4794 225.733 11.6714 225.488 11.9274 225.36C12.3114 225.168 12.802 225.072 13.3994 225.072H22.6474C23.778 225.072 24.4607 225.413 24.6954 226.096C24.802 226.437 24.8554 226.896 24.8554 227.472C24.8554 228.048 24.802 228.517 24.6954 228.88C24.5887 229.221 24.4074 229.467 24.1514 229.616C23.8954 229.744 23.6714 229.819 23.4794 229.84C23.3087 229.861 23.0207 229.872 22.6154 229.872ZM22.6154 236.656H13.3674C12.2367 236.656 11.554 236.315 11.3194 235.632C11.2127 235.269 11.1594 234.811 11.1594 234.256C11.1594 233.68 11.2127 233.221 11.3194 232.88C11.4474 232.517 11.6394 232.272 11.8954 232.144C12.3007 231.952 12.802 231.856 13.3994 231.856H22.6474C23.7567 231.856 24.418 232.197 24.6314 232.88C24.7594 233.221 24.8234 233.68 24.8234 234.256C24.8234 234.832 24.77 235.301 24.6634 235.664C24.5567 236.005 24.3754 236.251 24.1194 236.4C23.8634 236.528 23.6394 236.603 23.4474 236.624C23.2767 236.645 22.9994 236.656 22.6154 236.656Z" fill="#DCDFE3"/>
<path opacity="0.1" d="M131.039 125.704H133.631C134.377 125.704 134.921 125.8 135.263 125.992C135.604 126.163 135.828 126.429 135.935 126.792C136.063 127.155 136.127 127.645 136.127 128.264C136.127 128.861 136.073 129.341 135.967 129.704C135.86 130.067 135.679 130.323 135.423 130.472C135.039 130.664 134.495 130.76 133.791 130.76H131.039V133.352C131.039 134.099 130.943 134.643 130.751 134.984C130.58 135.325 130.313 135.56 129.951 135.688C129.588 135.795 129.097 135.848 128.479 135.848C127.881 135.848 127.401 135.795 127.039 135.688C126.676 135.56 126.42 135.357 126.271 135.08C126.079 134.675 125.983 134.088 125.983 133.32V130.76H123.199C122.495 130.76 121.983 130.675 121.663 130.504C121.343 130.333 121.129 130.067 121.023 129.704C120.916 129.32 120.863 128.829 120.863 128.232C120.863 127.635 120.916 127.155 121.023 126.792C121.151 126.408 121.364 126.141 121.663 125.992C122.068 125.8 122.655 125.704 123.423 125.704H125.983V123.112C125.983 122.365 126.068 121.821 126.239 121.48C126.409 121.139 126.676 120.915 127.039 120.808C127.423 120.68 127.913 120.616 128.51 120.616C129.108 120.616 129.588 120.68 129.951 120.808C130.335 120.915 130.601 121.107 130.751 121.384C130.943 121.789 131.039 122.376 131.039 123.144V125.704Z" fill="#DCDFE3"/>
<path opacity="0.1" d="M177.458 232.368C178.332 232.368 178.951 232.475 179.314 232.688C179.698 232.88 179.954 233.189 180.082 233.616C180.21 234.021 180.274 234.565 180.274 235.248C180.274 235.909 180.199 236.443 180.05 236.848C179.922 237.253 179.698 237.531 179.378 237.68C178.908 237.936 178.247 238.064 177.394 238.064H164.882C164.114 238.064 163.452 237.776 162.898 237.2C162.343 236.624 162.066 235.952 162.066 235.184C162.066 234.032 162.46 232.976 163.25 232.016C164.06 231.035 165.031 230.203 166.162 229.52C167.292 228.816 168.423 228.133 169.554 227.472C170.684 226.789 171.644 226.021 172.434 225.168C173.244 224.315 173.65 223.408 173.65 222.448C173.65 222.256 173.575 221.989 173.426 221.648C173.276 221.285 173.106 220.997 172.914 220.784C172.743 220.549 172.466 220.336 172.082 220.144C171.698 219.952 171.164 219.856 170.482 219.856C169.799 219.856 169.202 220.112 168.69 220.624C168.199 221.115 167.922 221.605 167.858 222.096L167.73 222.832V223.024C167.73 223.493 167.708 223.845 167.666 224.08C167.644 224.315 167.548 224.581 167.378 224.88C167.058 225.392 166.226 225.648 164.882 225.648C163.388 225.648 162.503 225.243 162.226 224.432C162.119 224.091 162.066 223.547 162.066 222.8C162.066 220.581 162.855 218.597 164.434 216.848C166.034 215.077 168.114 214.192 170.674 214.192C173.255 214.192 175.346 215.088 176.946 216.88C178.546 218.651 179.346 220.677 179.346 222.96C179.346 224.176 179.079 225.328 178.546 226.416C178.012 227.504 177.372 228.379 176.626 229.04C175.047 230.448 173.639 231.397 172.402 231.888L171.602 232.208V232.368H177.458ZM192.091 217.264C192.71 216.389 193.574 215.664 194.683 215.088C195.814 214.491 197.115 214.192 198.587 214.192C200.059 214.192 201.339 214.48 202.427 215.056C203.537 215.632 204.401 216.347 205.019 217.2C205.659 218.053 206.171 219.056 206.555 220.208C207.195 222.128 207.515 224.165 207.515 226.32C207.515 230.181 206.683 233.243 205.019 235.504C204.401 236.357 203.537 237.061 202.427 237.616C201.339 238.171 200.07 238.448 198.619 238.448C197.169 238.448 195.878 238.171 194.747 237.616C193.638 237.04 192.763 236.336 192.123 235.504C191.505 234.672 190.993 233.68 190.587 232.528C189.969 230.693 189.659 228.613 189.659 226.288C189.659 224.155 189.905 222.331 190.395 220.816C190.907 219.301 191.473 218.117 192.091 217.264ZM198.555 232.752C200.753 232.752 201.851 230.661 201.851 226.48V226.288C201.851 222 200.763 219.856 198.587 219.856C196.411 219.856 195.323 222.011 195.323 226.32C195.323 230.608 196.401 232.752 198.555 232.752ZM224.52 232.368C225.395 232.368 226.013 232.475 226.376 232.688C226.76 232.88 227.016 233.189 227.144 233.616C227.272 234.021 227.336 234.565 227.336 235.248C227.336 235.909 227.261 236.443 227.112 236.848C226.984 237.253 226.76 237.531 226.44 237.68C225.971 237.936 225.309 238.064 224.456 238.064H211.944C211.176 238.064 210.515 237.776 209.96 237.2C209.405 236.624 209.128 235.952 209.128 235.184C209.128 234.032 209.523 232.976 210.312 232.016C211.123 231.035 212.093 230.203 213.224 229.52C214.355 228.816 215.485 228.133 216.616 227.472C217.747 226.789 218.707 226.021 219.496 225.168C220.307 224.315 220.712 223.408 220.712 222.448C220.712 222.256 220.637 221.989 220.488 221.648C220.339 221.285 220.168 220.997 219.976 220.784C219.805 220.549 219.528 220.336 219.144 220.144C218.76 219.952 218.227 219.856 217.544 219.856C216.861 219.856 216.264 220.112 215.752 220.624C215.261 221.115 214.984 221.605 214.92 222.096L214.792 222.832V223.024C214.792 223.493 214.771 223.845 214.728 224.08C214.707 224.315 214.611 224.581 214.44 224.88C214.12 225.392 213.288 225.648 211.944 225.648C210.451 225.648 209.565 225.243 209.288 224.432C209.181 224.091 209.128 223.547 209.128 222.8C209.128 220.581 209.917 218.597 211.496 216.848C213.096 215.077 215.176 214.192 217.736 214.192C220.317 214.192 222.408 215.088 224.008 216.88C225.608 218.651 226.408 220.677 226.408 222.96C226.408 224.176 226.141 225.328 225.608 226.416C225.075 227.504 224.435 228.379 223.688 229.04C222.109 230.448 220.701 231.397 219.464 231.888L218.664 232.208V232.368H224.52ZM244.948 230.832C244.948 232.987 244.169 234.789 242.612 236.24C241.076 237.691 239.209 238.416 237.012 238.416C234.239 238.416 232.148 237.531 230.74 235.76C229.332 233.968 228.628 231.664 228.628 228.848C228.628 224.773 229.78 221.371 232.084 218.64C234.409 215.909 237.577 214.544 241.588 214.544C242.399 214.544 242.985 214.651 243.348 214.864C243.732 215.056 243.988 215.355 244.116 215.76C244.244 216.165 244.308 216.677 244.308 217.296C244.308 217.915 244.255 218.405 244.148 218.768C244.041 219.131 243.913 219.408 243.764 219.6C243.615 219.792 243.401 219.931 243.124 220.016C242.761 220.144 242.143 220.208 241.268 220.208C240.393 220.208 239.54 220.357 238.708 220.656C237.897 220.955 237.257 221.317 236.788 221.744C235.849 222.619 235.273 223.408 235.06 224.112L234.9 224.56C235.689 224.197 236.479 224.016 237.268 224.016C239.38 224.016 241.183 224.72 242.676 226.128C244.191 227.515 244.948 229.083 244.948 230.832ZM236.884 233.168C238.527 233.168 239.348 232.453 239.348 231.024C239.348 230.533 239.156 230.075 238.772 229.648C238.409 229.221 237.812 229.008 236.98 229.008C236.169 229.008 235.54 229.211 235.092 229.616C234.665 230 234.452 230.395 234.452 230.8C234.452 231.205 234.473 231.515 234.516 231.728C234.58 231.941 234.687 232.176 234.836 232.432C235.135 232.923 235.817 233.168 236.884 233.168Z" fill="#DCDFE3"/>
</svg>
